
<svg version="1.0" xmlns="http://www.w3.org/2000/svg" width="368.000000pt" height="317.000000pt" preserveAspectRatio="xMidYMid meet">
    
    <symbol id="arasaka" viewBox="0 0 368.000000 317.000000">
        <g transform="translate(0.000000,317.000000) scale(0.100000,-0.100000)" fill="#000000" stroke="none">
            <path 
                d="M1615 3024 c-569 -88 -1035 -510 -1180 -1069 -37 -144 -48 -252 -42
                -420 7 -219 48 -387 142 -580 70 -146 158 -268 280 -390 208 -208 449 -338
                746 -402 66 -14 128 -18 284 -18 180 1 211 3 311 27 198 47 386 132 547 248
                87 63 251 231 320 328 111 155 192 338 238 537 32 142 37 386 11 540 -108 629
                -592 1106 -1217 1200 -122 18 -319 18 -440 -1z m373 -194 c268 -34 512 -149
                711 -335 110 -104 191 -215 262 -360 145 -297 168 -629 63 -945 -111 -333
                -379 -619 -706 -754 -301 -125 -653 -126 -948 -3 -392 163 -667 496 -757 917
                -25 118 -25 362 0 480 92 433 388 780 797 933 179 66 387 91 578 67z"
            />
            <path 
                d="M1708 2771 c-125 -40 -220 -122 -275 -237 -86 -179 -55 -379 80 -516
                47 -47 141 -105 200 -122 16 -5 17 -30 17 -333 l0 -328 -118 119 -119 118 25
                61 c48 118 40 273 -20 391 -27 53 -112 142 -166 173 -67 40 -155 63 -237 63
                -406 0 -606 -486 -319 -776 131 -134 335 -170 507 -92 l48 22 199 -199 200
                -200 0 -261 0 -262 23 -6 c29 -8 161 -8 181 0 14 5 16 38 16 268 l0 261 199
                199 199 199 44 -20 c92 -44 203 -54 303 -28 332 87 457 491 230 743 -146 162
                -389 200 -577 89 -54 -31 -139 -120 -166 -173 -60 -118 -68 -273 -20 -391 l25
                -61 -119 -118 -118 -119 0 328 c0 303 1 328 18 333 55 16 149 73 196 120 179
                175 174 472 -10 648 -115 111 -297 154 -446 107z"
            />

        </g>
    </symbol>
</svg>
